# xmcd CD database file
#
# Track frame offsets:
#        150
#        17132
#        30817
#        48040
#        63140
#        78127
#        90772
#        104900
#        118972
#        133315
#
# Disc length: 2019 seconds
#
# Revision: 0
# Processed by: cddbd v1.5.2PL0 Copyright (c) Steve Scherf et al.
# Submitted via: CUERipper 2.1.5
#
DISCID=7307e10a
DTITLE=Mandy Barnett - Mandy Barnett
DYEAR=1996
DGENRE=
TTITLE0=Planet of Love
TTITLE1=Maybe
TTITLE2=Rainy Days
TTITLE3=Three Days
TTITLE4=Baby Don't You Know
TTITLE5=Now Thats All Right With Me
TTITLE6=A Simple I Love You
TTITLE7=I'll Just Pretend
TTITLE8=What's Good for You
TTITLE9=Wayfaring Stranger
EXTD=
EXTT0=
EXTT1=
EXTT2=
EXTT3=
EXTT4=
EXTT5=
EXTT6=
EXTT7=
EXTT8=
EXTT9=
PLAYORDER=
